PathFileType	4	(X/Y/Z)	/Users/itak/Documents/Research/Walk-IL/dataset/trc/00122_00007.trc
DataRate	CameraRate	NumFrames	NumMarkers	Units	OrigDataRate	OrigDataStartFrame	OrigNumFrames
100.000000	100.000000	4	53	mm	100.000000	454	727
Frame#	Time	RPSI			LPSI			L3			STRN			T10			C7			CLAV			RBAK			LBAK			LSHO			LUPA			LAEL			LAOL			LWTS			LWPS			LFRA			LIFD			LHPS			LHTS			RSHO			RUPA			RAEL			RAOL			RWTS			RWPS			RFRA			RIFD			RHTS			RHPS			RBHD			LFHD			RFHD			LBHD			LHIP			RHIP			RASI			LASI			LKNE			LTHI			LANK			LTIP			LTOE			LMT1			LMT5			LHEE			RKNE			RTHI			RANK			RTIP			RTOE			RMT1			RMT5			RHEE			
		X1	Y1	Z1	X2	Y2	Z2	X3	Y3	Z3	X4	Y4	Z4	X5	Y5	Z5	X6	Y6	Z6	X7	Y7	Z7	X8	Y8	Z8	X9	Y9	Z9	X10	Y10	Z10	X11	Y11	Z11	X12	Y12	Z12	X13	Y13	Z13	X14	Y14	Z14	X15	Y15	Z15	X16	Y16	Z16	X17	Y17	Z17	X18	Y18	Z18	X19	Y19	Z19	X20	Y20	Z20	X21	Y21	Z21	X22	Y22	Z22	X23	Y23	Z23	X24	Y24	Z24	X25	Y25	Z25	X26	Y26	Z26	X27	Y27	Z27	X28	Y28	Z28	X29	Y29	Z29	X30	Y30	Z30	X31	Y31	Z31	X32	Y32	Z32	X33	Y33	Z33	X34	Y34	Z34	X35	Y35	Z35	X36	Y36	Z36	X37	Y37	Z37	X38	Y38	Z38	X39	Y39	Z39	X40	Y40	Z40	X41	Y41	Z41	X42	Y42	Z42	X43	Y43	Z43	X44	Y44	Z44	X45	Y45	Z45	X46	Y46	Z46	X47	Y47	Z47	X48	Y48	Z48	X49	Y49	Z49	X50	Y50	Z50	X51	Y51	Z51	X52	Y52	Z52	X53	Y53	Z53	

455	4.54	-551.7940063476562	1105.020751953125	-317.4120483398438	-437.204833984375	1096.068359375	-244.8441925048828	-486.3378295898438	1135.691040039062	-284.3389892578125	-601.3618774414062	1340.033081054688	-107.2595672607422	-452.5304565429688	1284.173095703125	-311.5804748535156	-451.9195861816406	1576.907836914062	-276.9141235351562	-574.122802734375	1473.76611328125	-137.7595062255859	-494.3851318359375	1392.570678710938	-369.987060546875	-368.5969543457031	1553.75830078125	-219.4225158691406	-370.3631591796875	1540.977416992188	-109.5823822021484	-306.1509399414062	1408.626098632812	-78.84719848632812	-304.2736511230469	1190.122802734375	-50.62586212158203	-304.0989074707031	1175.954467773438	-137.9556121826172	-408.9291381835938	936.6367797851562	4.12884521484375	-338.798828125	908.210693359375	-42.07216262817383	-315.1158447265625	1074.8525390625	-33.04425048828125	-439.1031188964844	745.0528564453125	1.581997036933899	-358.7234191894531	834.3098754882812	-17.4078426361084	-412.3790283203125	847.6123657226562	24.84861946105957	-628.1581420898438	1563.344482421875	-346.9319763183594	-666.9990844726562	1491.4677734375	-401.6298217773438	-690.0639038085938	1201.18359375	-436.2976379394531	-617.252197265625	1192.569213867188	-373.95361328125	-797.2059936523438	961.2919921875	-332.5911560058594	-767.1683349609375	944.970458984375	-407.9532165527344	-722.7913208007812	1129.8779296875	-432.8629150390625	-813.6339111328125	767.4307250976562	-308.2911071777344	-830.0042114257812	854.3756713867188	-319.9217834472656	-803.4053955078125	846.9960327148438	-388.490478515625	-556.0382080078125	1773.36572265625	-255.2039489746094	-479.5195617675781	1783.80419921875	-47.85829544067383	-598.2581787109375	1815.260131835938	-86.11074829101562	-428.8558654785156	1747.2529296875	-220.7064056396484	-399.2366943359375	1000.783874511719	-110.1694564819336	-727.6643676757812	1027.901000976562	-271.1383972167969	-717.413818359375	1093.841430664062	-174.1139068603516	-489.5129699707031	1072.257934570312	-41.48204040527344	-486.3648071289062	490.1727905273438	-125.7887573242188	-442.3830871582031	640.6572265625	-121.5438003540039	-252.5638122558594	134.5786743164062	-450.35107421875	-331.8972778320312	332.4189758300781	-291.4032592773438	-447.5753784179688	27.19521141052246	-434.702880859375	-405.1200866699219	68.76261901855469	-476.7919616699219	-326.1045532226562	45.14823532104492	-404.6096801757812	-248.4729156494141	203.2974090576172	-514.215087890625	-783.6026611328125	555.8817749023438	-136.5619506835938	-768.7177734375	826.1068725585938	-206.0961303710938	-806.5397338867188	24.22398567199707	-176.4239044189453	-808.4901123046875	419.2706604003906	-145.0762634277344	-819.8919067382812	57.13665008544922	59.38556289672852	-764.3927612304688	48.87592315673828	15.23132514953613	-865.2620239257812	36.0596923828125	-54.54077911376953	-742.5597534179688	30.70502662658691	-215.8177337646484	
456	4.55	-559.828125	1106.762817382812	-310.7073059082031	-444.013916015625	1096.925659179688	-240.2201995849609	-493.9863891601562	1137.133178710938	-278.6499938964844	-605.9094848632812	1341.236694335938	-98.80123138427734	-460.9767456054688	1285.806030273438	-305.9638671875	-459.6910705566406	1578.463500976562	-270.9469604492188	-579.3250122070312	1475.0205078125	-129.6526794433594	-503.8133239746094	1394.306030273438	-363.650146484375	-375.4212036132812	1555.21142578125	-214.9375152587891	-375.1673583984375	1542.283203125	-105.1555557250977	-310.0875549316406	1410.055053710938	-75.76336669921875	-306.7023315429688	1191.47705078125	-48.34515762329102	-307.2343139648438	1177.894409179688	-135.7705841064453	-408.9010009765625	936.6754150390625	5.418797969818115	-338.6519165039062	909.2393798828125	-41.2421875	-316.4722900390625	1076.040893554688	-31.39415550231934	-437.3741455078125	744.8242797851562	0.6406939625740051	-357.884033203125	834.8988647460938	-17.3431339263916	-411.6383666992188	847.2679443359375	25.13841247558594	-637.3341674804688	1565.107299804688	-337.6873779296875	-677.0209350585938	1493.204223632812	-391.8464965820312	-699.8810424804688	1202.968383789062	-427.2792358398438	-625.8369750976562	1194.360473632812	-366.346435546875	-804.9322509765625	963.05224609375	-321.4089965820312	-776.3987426757812	946.5885009765625	-397.3227844238281	-732.51123046875	1131.556762695312	-423.227294921875	-821.0117797851562	769.2806396484375	-296.2754516601562	-837.5867919921875	856.2271118164062	-307.9052124023438	-812.2001953125	848.6182861328125	-376.9533386230469	-562.6417846679688	1774.924194335938	-247.6402282714844	-482.9634399414062	1785.079711914062	-41.49735260009766	-602.0823364257812	1817.261596679688	-77.96275329589844	-435.0943908691406	1748.048583984375	-215.0873870849609	-404.1300964355469	1001.316772460938	-106.4705581665039	-734.9891967773438	1029.903564453125	-261.6896667480469	-723.0132446289062	1095.220947265625	-164.5354766845703	-492.9273071289062	1073.230224609375	-35.96866226196289	-495.9195861816406	490.876953125	-110.1603622436523	-450.6282043457031	641.2202758789062	-110.5665740966797	-261.1473083496094	145.2631225585938	-445.2798767089844	-342.4854431152344	338.4646301269531	-281.0958862304688	-449.0247497558594	26.09849739074707	-430.7532958984375	-410.8592224121094	73.15379333496094	-470.8042907714844	-328.7481079101562	49.27710342407227	-402.7201538085938	-262.2391662597656	216.6846466064453	-505.8961791992188	-787.5621948242188	555.500244140625	-133.4920196533203	-774.5974731445312	826.9717407226562	-199.2355041503906	-806.8282470703125	24.28103446960449	-176.2778472900391	-811.4862670898438	418.7965393066406	-143.1289978027344	-819.8624877929688	54.90987014770508	60.36283111572266	-764.4536743164062	47.85285949707031	15.55759048461914	-865.4893798828125	35.90096664428711	-54.26656723022461	-742.9283447265625	30.78114891052246	-215.8455200195312	
457	4.56	-567.4949340820312	1108.382690429688	-304.0859069824219	-450.4920959472656	1097.76953125	-235.6577453613281	-501.270263671875	1138.520263671875	-273.0398559570312	-610.160888671875	1342.33203125	-90.43924713134766	-469.2050476074219	1287.442260742188	-300.3785705566406	-467.4192199707031	1580.02587890625	-264.9913940429688	-584.2898559570312	1476.185424804688	-121.5810165405273	-513.1378173828125	1396.057250976562	-357.3596496582031	-382.182373046875	1556.676635742188	-210.5540466308594	-379.7911376953125	1543.53564453125	-100.8420639038086	-313.8221130371094	1411.432495117188	-72.98779296875	-308.9197998046875	1192.796752929688	-46.42082214355469	-310.2925415039062	1179.756225585938	-133.9295349121094	-408.8418884277344	936.9096069335938	6.654195308685303	-338.5706787109375	910.3042602539062	-40.49853897094727	-317.6979370117188	1077.225341796875	-30.03127288818359	-435.9332580566406	744.8539428710938	-0.1254002153873444	-357.2259826660156	835.5792846679688	-17.29139137268066	-411.0514221191406	847.157958984375	25.4309024810791	-646.4293823242188	1566.81689453125	-328.3131103515625	-687.0067138671875	1494.898803710938	-381.8898010253906	-709.8224487304688	1204.713623046875	-418.0346984863281	-634.4893188476562	1196.086791992188	-358.6622619628906	-812.5159912109375	964.6964721679688	-310.040771484375	-785.5936889648438	948.1466674804688	-386.5530090332031	-742.28564453125	1133.198120117188	-413.3631286621094	-828.10595703125	770.9812622070312	-284.20849609375	-844.9225463867188	857.9442749023438	-295.7252807617188	-820.9036254882812	850.1695556640625	-365.2957763671875	-569.0958251953125	1776.443481445312	-239.9632568359375	-486.1433410644531	1786.253662109375	-35.12257766723633	-605.6203002929688	1819.210815429688	-69.71320343017578	-441.2093811035156	1748.745239257812	-209.4317779541016	-408.7611083984375	1001.896911621094	-102.7221603393555	-741.8968505859375	1031.712036132812	-252.4095001220703	-728.32861328125	1096.542602539062	-155.1569976806641	-496.1497497558594	1074.201782226562	-30.55278015136719	-505.5114135742188	491.927490234375	-94.3243408203125	-458.8436584472656	641.9806518554688	-99.30006408691406	-270.7406311035156	156.1999359130859	-439.6586608886719	-353.5268249511719	344.3108825683594	-270.2113647460938	-450.650390625	25.01931381225586	-425.4729614257812	-417.4051513671875	77.71414184570312	-463.803466796875	-331.9064331054688	54.34529495239258	-400.1318969726562	-277.0270080566406	229.7092590332031	-497.0076293945312	-791.3969116210938	555.107421875	-130.8524627685547	-780.2385864257812	827.7737426757812	-192.6609039306641	-807.0973510742188	24.31816482543945	-176.1885833740234	-814.364013671875	418.3530578613281	-141.5949859619141	-819.883056640625	53.07135391235352	61.12600708007812	-764.5142822265625	47.08269500732422	15.80923271179199	-865.6912841796875	35.74496841430664	-54.07287979125977	-743.240966796875	30.84296417236328	-215.8913269042969	
458	4.57	-574.7706909179688	1109.882690429688	-297.5433959960938	-456.5781860351562	1098.681884765625	-231.1511077880859	-508.1716003417969	1139.852294921875	-267.5130615234375	-614.1304321289062	1343.349731445312	-82.22559356689453	-477.175537109375	1289.095825195312	-294.8262023925781	-475.0703125	1581.614013671875	-259.0487976074219	-589.0166015625	1477.296997070312	-113.5717620849609	-522.3192138671875	1397.840698242188	-351.0968627929688	-388.8466186523438	1558.190063476562	-206.2801971435547	-384.2379760742188	1544.782836914062	-96.64624786376953	-317.3598937988281	1412.807861328125	-70.51140594482422	-310.9376525878906	1194.129760742188	-44.89928817749023	-313.347412109375	1181.589965820312	-132.4700012207031	-408.720947265625	937.3641357421875	7.834281444549561	-338.5799560546875	911.4400024414062	-39.92769622802734	-318.8000793457031	1078.444213867188	-29.01052856445312	-434.73291015625	745.1461181640625	-0.6056873798370361	-356.7195129394531	836.3904418945312	-17.29039573669434	-410.5310974121094	847.3150024414062	25.74749755859375	-655.3834838867188	1568.487182617188	-318.8422546386719	-696.8925170898438	1496.573852539062	-371.7890319824219	-719.8709106445312	1206.439086914062	-408.5235595703125	-643.2120971679688	1197.768798828125	-350.8532409667969	-819.9607543945312	966.2288208007812	-298.50537109375	-794.7337036132812	949.6737670898438	-375.6480102539062	-752.0999145507812	1134.826293945312	-403.2434692382812	-834.9141845703125	772.533447265625	-272.1703491210938	-852.000244140625	859.5201416015625	-283.4362487792969	-829.4921264648438	851.6661376953125	-353.5565795898438	-575.40478515625	1777.932983398438	-232.1728820800781	-489.0817260742188	1787.333251953125	-28.72894668579102	-608.8936767578125	1821.079223632812	-61.36055755615234	-447.203125	1749.386840820312	-203.7261810302734	-413.1796569824219	1002.583435058594	-98.83397674560547	-748.3875732421875	1033.33544921875	-243.3380889892578	-733.3839111328125	1097.8369140625	-146.0288543701172	-499.251953125	1075.205444335938	-25.21090698242188	-515.1090698242188	493.3420104980469	-78.36310577392578	-467.0098876953125	642.9710693359375	-87.76548004150391	-281.3258666992188	167.1475830078125	-433.4776000976562	-364.9523315429688	349.9195861816406	-258.8288879394531	-452.5010375976562	24.10037612915039	-418.65380859375	-424.7771606445312	82.28654479980469	-455.6435241699219	-335.6861877441406	60.24481582641602	-396.6610717773438	-292.7160034179688	242.1092071533203	-487.6756591796875	-795.0626831054688	554.718505859375	-128.5113983154297	-785.6212158203125	828.5158081054688	-186.3029937744141	-807.3590087890625	24.32889938354492	-176.1529998779297	-817.1029052734375	417.9550170898438	-140.307861328125	-819.9240112304688	51.62495422363281	61.68257522583008	-764.5598754882812	46.54959869384766	15.98526954650879	-865.8640747070312	35.59634017944336	-53.95051956176758	-743.5245971679688	30.89635276794434	-215.9643249511719	
